<?xml version="1.0" standalone="no"?><!DOCTYPE svg PUBLIC "-//W3C//DTD SVG 1.1//EN" "http://www.w3.org/Graphics/SVG/1.1/DTD/svg11.dtd"><svg class="icon" width="25px" height="25.00px" viewBox="0 0 1024 1024" version="1.1" xmlns="http://www.w3.org/2000/svg"><path d="M337.880716 360.231177c-65.910116 0-119.315623-53.208585-119.315624-118.862701s53.4252-118.862701 119.315624-118.862701 119.315623 53.208585 119.315623 118.862701-53.405508 118.862701-119.315623 118.862701z m0 396.209002c-156.967294 0-238.650939-35.24921-238.650939-75.795649 0-58.092274 101.375942-122.308853 238.650939-122.308852s238.650939 64.216578 238.650939 122.308852c0 40.546438-81.683645 75.795649-238.650939 75.795649z" fill="#D8D8D8" /><path d="M337.880716 439.472977c-109.843629 0-198.872501-88.694103-198.872501-198.104501s89.028872-198.104501 198.872501-198.104501 198.872501 88.694103 198.8725 198.104501-89.028872 198.104501-198.8725 198.104501z m0-79.2418c65.910116 0 119.315623-53.208585 119.315623-118.862701s-53.4252-118.862701-119.315623-118.862701-119.315623 53.208585-119.315624 118.862701 53.4252 118.862701 119.315624 118.862701z m0 475.450802C162.146663 835.681979 19.692592 791.965082 19.692592 680.64453c0-111.320551 142.454072-201.550653 318.188124-201.550653s318.188124 90.230102 318.188124 201.550653c0.019692 111.320551-142.454072 155.037449-318.188124 155.037449z m0-79.2418c156.967294 0 238.650939-35.24921 238.650939-75.795649 0-58.092274-101.375942-122.308853-238.650939-122.308852S99.249469 622.552256 99.249469 680.64453c0 40.546438 81.683645 75.795649 238.631247 75.795649z m-87.335334 206.985727a39.384593 39.384593 0 0 1 37.238132-69.415345A430.946213 430.946213 0 0 0 492.307704 945.230224c239.2614 0 433.230519-193.969119 433.230519-433.230519 0-206.296496-145.309455-382.818241-344.753032-424.191756a39.384593 39.384593 0 1 1 16.009837-77.134724C832.610277 59.588889 1004.307408 268.189384 1004.307408 511.999705c0 282.761683-229.238022 511.999705-511.999704 511.999704a509.892629 509.892629 0 0 1-241.762322-60.573503z m542.069841-355.839795a39.384593 39.384593 0 1 1-75.067034-23.867063c7.305842-22.98091 11.067071-47.064588 11.067071-71.719343 0-86.173489-46.493512-164.174675-120.162393-205.863266a39.384593 39.384593 0 0 1 38.774132-68.548884A314.919203 314.919203 0 0 1 807.384445 511.999705c0 32.767981-5.021536 64.925501-14.769222 95.586406z" fill="#333333" /></svg>