<?xml version="1.0" standalone="no"?><!DOCTYPE svg PUBLIC "-//W3C//DTD SVG 1.1//EN" "http://www.w3.org/Graphics/SVG/1.1/DTD/svg11.dtd"><svg class="icon" width="25px" height="25.00px" viewBox="0 0 1024 1024" version="1.1" xmlns="http://www.w3.org/2000/svg"><path d="M669.245952 138.752L266.592085 371.234133c-8.192 4.727467-14.062933 12.663467-16.196266 21.879467l-42.0864 182.357333c-6.7072 29.064533 24.490667 52.155733 50.3296 37.239467l476.928-275.3536a34.167467 34.167467 0 0 0 16.196266-37.239467l-32.187733-139.485866a34.133333 34.133333 0 0 0-50.3296-21.879467zM628.200619 0H395.428352a68.266667 68.266667 0 0 0-66.525867 52.923733l-36.522666 158.276267c-6.7072 29.064533 24.490667 52.155733 50.3296 37.239467l315.392-182.101334C681.926485 52.599467 680.851285 17.066667 655.729152 5.853867A67.413333 67.413333 0 0 0 628.200619 0zM952.535552 887.4496h-38.075733a34.1504 34.1504 0 0 1-33.262934-26.453333l-33.024-143.121067a34.133333 34.133333 0 0 0-50.3296-21.879467l-323.515733 186.88a34.065067 34.065067 0 0 1-17.083733 4.573867h-0.238934c-34.9184 0-47.3088-46.2336-17.066666-63.6928l359.918933-207.786667a34.167467 34.167467 0 0 0 16.196267-37.239466l-32.187734-139.485867a34.133333 34.133333 0 0 0-50.3296-21.879467l-550.997333 318.122667a34.0992 34.0992 0 0 0-16.196267 21.896533l-23.842133 103.594667A34.133333 34.133333 0 0 1 109.237419 887.466667H71.503019C35.901952 887.466667 3.953152 913.3056 0.369152 948.736-3.743915 989.371733 28.426752 1024 68.277419 1024h887.466666c39.850667 0 72.021333-34.6112 67.908267-75.264-3.584-35.4304-35.515733-61.269333-71.1168-61.2864z" fill="#040000" /></svg>