<?xml version="1.0" standalone="no"?><!DOCTYPE svg PUBLIC "-//W3C//DTD SVG 1.1//EN" "http://www.w3.org/Graphics/SVG/1.1/DTD/svg11.dtd"><svg class="icon" width="25px" height="25.00px" viewBox="0 0 1024 1024" version="1.1" xmlns="http://www.w3.org/2000/svg"><path d="M172.2 548.4H318v137.9H172.2z" fill="#B0CAE2" /><path d="M318 694.3H172.2c-4.4 0-8-3.6-8-8V548.4c0-4.4 3.6-8 8-8H318c4.4 0 8 3.6 8 8v137.9c0 4.5-3.6 8-8 8z m-137.8-16H310V556.4H180.2v121.9z" fill="#334C68" /><path d="M712.9 294.4h145.8v137.9H712.9z" fill="#B0CAE2" /><path d="M858.7 440.4H712.9c-4.4 0-8-3.6-8-8v-138c0-4.4 3.6-8 8-8h145.8c4.4 0 8 3.6 8 8v137.9c0 4.5-3.6 8.1-8 8.1z m-137.8-16h129.8v-122H720.9v122z" fill="#334C68" /><path d="M711.7 515.1v152.2c0 22.4-18.1 40.5-40.5 40.5h-44c-22.7 0-41.2-18.4-41.2-41.2v-363c0-66.9-54.2-121.1-121.1-121.1H292.2c-66.9 0-121.1 54.2-121.1 121.1V498.5h144v-147c0-22.3 18.1-40.4 40.4-40.4h44.2c22.3 0 40.4 18.1 40.4 40.4v368.3c0 67 54.3 121.3 121.3 121.3h179.3c67 0 121.3-54.3 121.3-121.3V515.1H711.7z" fill="#EBF6FF" /><path d="M740.7 849.1H561.4c-71.3 0-129.3-58-129.3-129.3V351.5c0-17.9-14.5-32.4-32.4-32.4h-44.2c-17.9 0-32.4 14.5-32.4 32.4v147.1c0 4.4-3.6 8-8 8h-144c-4.4 0-8-3.6-8-8V303.7c0-71.2 57.9-129.1 129.1-129.1h172.7c71.2 0 129.1 57.9 129.1 129.1v363c0 18.3 14.9 33.2 33.2 33.2h44c17.9 0 32.5-14.6 32.5-32.5V515.1c0-4.4 3.6-8 8-8H862c4.4 0 8 3.6 8 8v204.7c0 71.3-58 129.3-129.3 129.3z m-385.1-546h44.2c26.7 0 48.4 21.7 48.4 48.4v368.3c0 62.4 50.8 113.3 113.3 113.3h179.3c62.4 0 113.3-50.8 113.3-113.3V523.1H719.7v144.2c0 26.7-21.7 48.5-48.5 48.5h-44c-27.1 0-49.2-22.1-49.2-49.2v-363c0-62.3-50.7-113.1-113.1-113.1H292.2c-62.3 0-113.1 50.7-113.1 113.1v186.9h128v-139c0.1-26.7 21.8-48.4 48.5-48.4z" fill="#334C68" /><path d="M331.6 559H158.1c-6.6 0-12-5.4-12-12v-8c0-6.6 5.4-12 12-12h173.5c6.6 0 12 5.4 12 12v8c0 6.6-5.4 12-12 12z" fill="#EBF6FF" /><path d="M331.6 567H158.1c-11 0-20-9-20-20v-8c0-11 9-20 20-20h173.5c11 0 20 9 20 20v8c0 11-9 20-20 20z m-173.5-32c-2.2 0-4 1.8-4 4v8c0 2.2 1.8 4 4 4h173.5c2.2 0 4-1.8 4-4v-8c0-2.2-1.8-4-4-4H158.1z" fill="#334C68" /><path d="M599.5 528.2H426c-6.6 0-12-5.4-12-12v-8c0-6.6 5.4-12 12-12h173.5c6.6 0 12 5.4 12 12v8c0 6.6-5.4 12-12 12z" fill="#EBF6FF" /><path d="M599.5 536.2H426c-11 0-20-9-20-20v-8c0-11 9-20 20-20h173.5c11 0 20 9 20 20v8c0 11-9 20-20 20z m-173.5-32c-2.2 0-4 1.8-4 4v8c0 2.2 1.8 4 4 4h173.5c2.2 0 4-1.8 4-4v-8c0-2.2-1.8-4-4-4H426z" fill="#334C68" /><path d="M317 334.1L185.6 220.9c-5-4.3-5.6-11.9-1.3-16.9l5.2-6.1c4.3-5 11.9-5.6 16.9-1.3l131.5 113.2c5 4.3 5.6 11.9 1.3 16.9l-5.2 6.1c-4.4 5-12 5.6-17 1.3z" fill="#FFFFFF" /><path d="M324.8 345c-4.8 0-9.4-1.7-13-4.8L180.3 226.9c-8.4-7.2-9.3-19.8-2.1-28.2l5.2-6.1c7.2-8.4 19.8-9.3 28.2-2.1l131.5 113.2c8.4 7.2 9.3 19.8 2.1 28.2L340 338c-3.5 4-8.3 6.5-13.7 6.9-0.5 0-1 0.1-1.5 0.1zM198.6 201.7c-1.1 0-2.3 0.5-3 1.4l-5.2 6.1c-1.4 1.6-1.2 4.2 0.4 5.6L322.2 328c1.1 0.9 2.3 1 2.9 0.9 0.6 0 1.8-0.3 2.7-1.4l5.2-6.1c1.4-1.6 1.2-4.2-0.4-5.6L201.2 202.7c-0.7-0.7-1.7-1-2.6-1z" fill="#334C68" /><path d="M430.2 334.1l131.5-113.2c5-4.3 5.6-11.9 1.3-16.9l-5.2-6.1c-4.3-5-11.9-5.6-16.9-1.3L409.3 309.8c-5 4.3-5.6 11.9-1.3 16.9l5.2 6.1c4.4 5 12 5.6 17 1.3z" fill="#FFFFFF" /><path d="M422.4 345c-5.6 0-11.2-2.4-15.2-6.9L402 332c-7.2-8.4-6.3-21 2.1-28.2l131.5-113.2c4-3.5 9.2-5.2 14.5-4.8 5.3 0.4 10.2 2.8 13.7 6.9l5.2 6.1c3.5 4 5.2 9.2 4.8 14.5s-2.8 10.2-6.9 13.7L435.4 340.1c-3.8 3.3-8.4 4.9-13 4.9z m7.8-10.9z m118.4-132.4c-0.7 0-1.7 0.2-2.6 1L414.5 315.9c-1.6 1.4-1.8 4-0.4 5.6l5.2 6.1c0.9 1.1 2.1 1.3 2.7 1.4 0.6 0 1.8 0 2.9-0.9l131.5-113.2c1.1-0.9 1.3-2.1 1.4-2.7 0-0.6 0-1.8-0.9-2.9l-5.2-6.1c-0.9-1.1-2.1-1.3-2.7-1.4-0.2-0.1-0.3-0.1-0.4-0.1z" fill="#334C68" /><path d="M707.8 680l131.5 113.2c5 4.3 5.6 11.9 1.3 16.9l-5.2 6.1c-4.3 5-11.9 5.6-16.9 1.3L686.9 704.2c-5-4.3-5.6-11.9-1.3-16.9l5.2-6.1c4.4-5 12-5.5 17-1.2z" fill="#FFFFFF" /><path d="M826.2 828.3c-4.6 0-9.3-1.6-13-4.8L681.7 710.3c-4-3.5-6.5-8.3-6.9-13.7-0.4-5.3 1.3-10.5 4.8-14.5l5.2-6.1c3.5-4 8.3-6.5 13.7-6.9 5.3-0.4 10.5 1.3 14.5 4.8l131.5 113.2c4 3.5 6.5 8.3 6.9 13.7s-1.3 10.5-4.8 14.5l-5.2 6.1c-4 4.6-9.6 6.9-15.2 6.9zM700 685.1h-0.3c-0.6 0-1.8 0.3-2.7 1.4l-5.2 6.1c-0.9 1.1-1 2.3-0.9 2.9 0 0.6 0.3 1.8 1.4 2.7l131.5 113.2c1.6 1.4 4.2 1.2 5.6-0.4l5.2-6.1c0.9-1.1 1-2.3 0.9-2.9 0-0.6-0.3-1.8-1.4-2.7L702.6 686c-0.9-0.7-2-0.9-2.6-0.9z" fill="#334C68" /><path d="M587.6 680L456.2 793.2c-5 4.3-5.6 11.9-1.3 16.9l5.2 6.1c4.3 5 11.9 5.6 16.9 1.3l131.5-113.2c5-4.3 5.6-11.9 1.3-16.9l-5.2-6.1c-4.3-5.1-12-5.6-17-1.3z" fill="#FFFFFF" /><path d="M469.2 828.3c-5.6 0-11.2-2.4-15.2-6.9l-5.2-6.1c-3.5-4-5.2-9.2-4.8-14.5 0.4-5.3 2.8-10.2 6.9-13.7l131.5-113.2c4-3.5 9.2-5.2 14.5-4.8 5.3 0.4 10.2 2.8 13.7 6.9l5.2 6.1c7.2 8.4 6.3 21-2.1 28.2L482.3 823.5c-3.8 3.2-8.4 4.8-13.1 4.8z m126.3-143.2c-0.7 0-1.7 0.2-2.6 1L461.4 799.2c-1.1 0.9-1.3 2.1-1.4 2.7 0 0.6 0 1.8 0.9 2.9l5.2 6.1c1.4 1.6 4 1.8 5.6 0.4l131.5-113.2c1.6-1.4 1.8-4 0.4-5.6l-5.2-6.1c-0.9-1.1-2.1-1.3-2.7-1.4 0 0.1-0.1 0.1-0.2 0.1z m-7.9-5.1z" fill="#334C68" /><path d="M872.5 452H699.1c-6.6 0-12-5.4-12-12v-8c0-6.6 5.4-12 12-12h173.5c6.6 0 12 5.4 12 12v8c-0.1 6.6-5.5 12-12.1 12z" fill="#EBF6FF" /><path d="M872.5 460H699.1c-11 0-20-9-20-20v-8c0-11 9-20 20-20h173.5c11 0 20 9 20 20v8c-0.1 11-9 20-20.1 20z m-173.4-32c-2.2 0-4 1.8-4 4v8c0 2.2 1.8 4 4 4h173.5c2.2 0 4-1.8 4-4v-8c0-2.2-1.8-4-4-4H699.1z" fill="#334C68" /><path d="M171.2 446.6h144.9" fill="#EBF6FF" /><path d="M316.1 450.6H171.2c-2.2 0-4-1.8-4-4s1.8-4 4-4h144.9c2.2 0 4 1.8 4 4s-1.8 4-4 4z" fill="#334C68" /><path d="M710.7 544.4h144.9" fill="#EBF6FF" /><path d="M855.6 548.4H710.7c-2.2 0-4-1.8-4-4s1.8-4 4-4h144.9c2.2 0 4 1.8 4 4s-1.8 4-4 4z" fill="#334C68" /><path d="M330.1 471h-0.2c-1.9-9.7-3.8-19.3-5.8-29h-161c-1.9 9.7-3.8 19.3-5.8 29h-0.2c-6.5 0-13.1 5.4-14.7 12-0.6 2.7-1.2 5.3-1.8 8-1.5 6.6 3 12 10.1 12h185.6c7.1 0 11.7-5.4 10.1-12-0.6-2.7-1.2-5.3-1.8-8-1.4-6.6-8-12-14.5-12z" fill="#FFFFFF" /><path d="M336.5 511H150.8c-5.9 0-11.3-2.5-14.7-6.7-3.3-4.1-4.4-9.6-3.2-15.1l1.8-8c1.9-8 8.3-14.6 15.9-17.1l4.7-23.7c0.7-3.7 4-6.4 7.8-6.4h161c3.8 0 7.1 2.7 7.8 6.4l4.7 23.7c7.6 2.5 14 9.1 15.9 17.1l1.8 8c1.3 5.4 0.1 10.9-3.2 15-3.3 4.3-8.7 6.8-14.6 6.8z m-179.3-32c-2.8 0-6.2 2.8-6.9 5.8l-1.8 8c-0.1 0.5-0.2 1.1 0.1 1.5 0.3 0.3 1 0.7 2.2 0.7h185.6c1.2 0 1.9-0.4 2.2-0.7 0.3-0.4 0.2-1 0.1-1.5l-1.8-8c-0.7-2.9-4-5.8-6.9-5.8h-0.2c-3.8 0-7.1-2.7-7.8-6.4l-4.5-22.6H169.7l-4.5 22.6c-0.7 3.7-4 6.4-7.8 6.4h-0.2z" fill="#334C68" /><path d="M872.2 508.1h-0.2c-1.9 9.7-3.8 19.3-5.8 29h-161c-1.9-9.7-3.8-19.3-5.8-29h-0.2c-6.5 0-13.1-5.4-14.7-12-0.6-2.7-1.2-5.3-1.8-8-1.5-6.6 3-12 10.1-12h185.6c7.1 0 11.7 5.4 10.1 12-0.6 2.7-1.2 5.3-1.8 8-1.3 6.6-7.9 12-14.5 12z" fill="#FFFFFF" /><path d="M872.2 508.1h-0.2c-1.9 9.7-3.8 19.3-5.8 29h-161c-1.9-9.7-3.8-19.3-5.8-29h-0.2c-6.5 0-13.1-5.4-14.7-12-0.6-2.7-1.2-5.3-1.8-8-1.5-6.6 3-12 10.1-12h185.6c7.1 0 11.7 5.4 10.1 12-0.6 2.7-1.2 5.3-1.8 8-1.3 6.6-7.9 12-14.5 12z" fill="#FFFFFF" /><path d="M866.3 545.1h-161c-3.8 0-7.1-2.7-7.8-6.4l-4.7-23.7c-7.6-2.5-14-9.1-15.9-17.1l-1.8-8c-1.3-5.4-0.1-10.9 3.2-15 3.4-4.3 8.8-6.7 14.7-6.7h185.6c5.9 0 11.3 2.5 14.7 6.7 3.3 4.1 4.5 9.6 3.2 15.1l-1.8 8c-1.9 8-8.3 14.6-15.9 17.1l-4.7 23.7c-0.7 3.6-4 6.3-7.8 6.3z m-154.4-16h147.9l4.5-22.6c0.7-3.7 4-6.4 7.8-6.4h0.2c2.8 0 6.2-2.8 6.9-5.8l1.8-8c0.1-0.5 0.2-1.1-0.1-1.5-0.3-0.3-1-0.7-2.2-0.7H693c-1.2 0-1.9 0.4-2.2 0.7-0.3 0.4-0.2 1-0.1 1.5l1.8 8c0.7 2.9 4 5.8 6.9 5.8h0.2c3.8 0 7.1 2.7 7.8 6.4l4.5 22.6z" fill="#334C68" /><path d="M175.2 476.1H314" fill="#B0CAE2" /><path d="M314 480.1H175.2c-2.2 0-4-1.8-4-4s1.8-4 4-4H314c2.2 0 4 1.8 4 4s-1.8 4-4 4z" fill="#334C68" /><path d="M716.2 503.1H855" fill="#B0CAE2" /><path d="M855 507.1H716.2c-2.2 0-4-1.8-4-4s1.8-4 4-4H855c2.2 0 4 1.8 4 4s-1.8 4-4 4z" fill="#334C68" /></svg>