<?xml version="1.0" standalone="no"?><!DOCTYPE svg PUBLIC "-//W3C//DTD SVG 1.1//EN" "http://www.w3.org/Graphics/SVG/1.1/DTD/svg11.dtd"><svg class="icon" width="25px" height="25.00px" viewBox="0 0 1024 1024" version="1.1" xmlns="http://www.w3.org/2000/svg"><path d="M1023.936004 86.3946v521.75939c0 31.35804-8.575464 62.460096-25.5984 93.434161a439.268546 439.268546 0 0 1-67.067808 90.042372c-27.646272 29.054184-59.260296 56.63646-94.714081 82.55484-35.51778 26.046372-71.547528 49.212924-108.025248 69.499657-36.541716 20.350728-72.059496 37.245672-106.489345 50.684832-34.429848 13.43916-64.63596 22.654584-90.618336 27.710268L519.135554 1023.936004l-11.263296-1.91988a552.669458 552.669458 0 0 1-92.666208-27.646272c-35.1978-13.43916-71.67552-30.334104-109.561153-50.684832a1040.574964 1040.574964 0 0 1-111.609024-69.435661c-36.47772-25.982376-69.11568-53.564652-97.785889-82.55484a440.228486 440.228486 0 0 1-69.563652-90.170364C8.831448 670.678083 0 639.448034 0 608.15399V86.3946l41.981376-5.695644L512.991938 0l480.225986 80.698956 30.71808 5.695644zM234.225361 309.356665v46.07712h82.106868a673.109931 673.109931 0 0 1-100.7937 233.009437l20.734704 52.732705c33.341916-54.71658 60.028248-114.808824 81.402912-181.556653v327.787513h47.35704V436.900694c15.35904 24.062496 33.405912 55.420536 54.780577 93.43416l27.326292-40.701456a1379.689769 1379.689769 0 0 0-82.042873-100.15374v-34.045873h68.731705v-46.07712H365.097181V179.188801h-47.421036v130.167864H234.225361z m297.709393 64.123992v42.749329h202.867321v-40.765453c22.71858 23.35854 48.700956 45.43716 77.43516 66.107869l26.046372-40.701456c-87.482532-63.420036-148.854697-136.951441-184.94844-221.042185h-44.029249a562.972814 562.972814 0 0 1-182.836572 222.322105l26.046372 40.765452a547.99775 547.99775 0 0 0 79.35504-69.435661z m199.539529-1.343916H533.27867c36.029748-40.061496 68.731704-88.122492 98.105868-144.886944a521.375414 521.375414 0 0 0 100.089745 144.886944z m-289.645897 351.85001v46.71708h382.440097v-46.71708h-104.121492a1551.071058 1551.071058 0 0 0 70.71558-251.056309l-46.07712-11.967252c-20.670708 104.121492-44.669208 191.604025-72.059496 263.023561H441.828386z m74.747328-245.040685l-41.405412 14.07912c18.686832 61.43616 34.749828 124.7922 48.060996 191.540029l42.045372-11.327292c-14.015124-73.467408-30.07812-138.231361-48.700956-194.291857z m102.777576-23.9985l-41.405412 13.311168c17.342916 58.748328 31.998 120.184488 43.389288 184.308481l44.093245-11.391288a1583.325042 1583.325042 0 0 0-46.077121-186.228361z" fill="#666666" /></svg>