<?xml version="1.0" standalone="no"?><!DOCTYPE svg PUBLIC "-//W3C//DTD SVG 1.1//EN"
        "http://www.w3.org/Graphics/SVG/1.1/DTD/svg11.dtd">
<svg class="icon" width="25px" height="25.00px" viewBox="0 0 1024 1024" version="1.1"
     xmlns="http://www.w3.org/2000/svg">
    <path d="M675.416883 401.294642c-3.065825-18.969027-12.279674-27.291576-31.459502-28.873608-9.134031-0.753153-18.438954-0.713244-27.577079 0.050142-61.628616 5.1503-105.275695-71.876004-69.661569-121.252575 5.666046-7.854898 10.339486-16.555048 14.504342-25.323758 3.453658-7.272637 6.511297-15.256472 2.033309-23.344684-13.113669-23.686469-35.316344-34.917254-60.231803-39.4812-21.790282-3.991917-28.636201 15.172561-37.399795 29.950126-4.41352 7.442506-8.631588 15.065114-13.733792 22.023596-9.224082 12.580526-21.324678 21.10569-36.700877 25.218358-42.768059 11.440563-75.348082-3.327792-98.292654-45.049009-20.837584-37.888935-35.150568-41.657772-72.182996-18.916838-4.146437 2.545986-8.251941 5.214768-12.096503 8.188496-17.691941 13.684674-20.61348 27.053146-10.061147 46.681182 6.144954 11.43033 13.639648 22.231327 18.839067 34.056654 19.516496 44.384883-13.166881 100.838639-61.292971 105.892749-13.934361 1.463328-28.102035 0.575098-42.142819 1.205455-13.329587 0.598634-24.840758 5.242398-29.230742 19.035542-6.390547 20.082384-6.39771 40.609906-0.172939 60.720943 3.478218 11.236925 11.806907 18.080797 23.957645 18.810415 7.541767 0.453325 15.132652 0.083911 22.701025 0.083911 26.312272-0.578168 50.612725 3.367701 69.304436 24.762987 27.582195 31.568996 30.148647 62.664202 7.513114 101.320617-24.150026 41.24231-19.875676 55.193043 23.629163 76.584236 4.828982 2.37407 9.881045 4.338818 14.94334 6.182816 14.187117 5.167696 25.803689 0.87902 34.135448-11.039427 6.488785-9.281387 12.291954-19.159362 17.373693-29.288047 26.063609-51.946093 110.654192-51.971675 136.877437-0.325411 5.130857 10.104125 10.707876 20.151969 17.399275 29.255301 11.211343 15.254425 23.316032 17.933441 42.996257 8.004301 20.260439-10.221806 44.868907-17.706267 45.317115-46.908356 0.122797-7.965415-5.034666-15.252379-9.163707-22.295795-5.196349-8.863878-10.858302-17.549701-15.077394-26.874067-19.790742-43.738154 10.17371-99.012038 57.508785-107.282399 15.135722-2.644223 30.273491-0.533143 45.37135-1.584078 19.386536-1.349741 28.640294-9.029654 31.985482-28.114314C677.767418 429.460122 677.668157 415.220816 675.416883 401.294642zM391.845433 535.906479c-63.817468 0.277316-115.043153-50.191122-115.200742-113.49796-0.158612-63.543222 50.671053-114.175389 114.480334-114.036219 63.067384 0.138146 113.295346 50.301639 113.453958 113.308649C504.737596 484.600977 454.370465 535.63428 391.845433 535.906479zM920.236751 626.689089c-0.874927-9.241478-3.640923-18.030655-7.748475-26.333762-5.768377-11.662621-14.499226-16.726963-27.826765-13.065574-11.412934 3.13541-22.432918 8.287757-33.929764 7.732102-36.33658 0.751107-61.509912-35.723619-51.329039-73.263607 7.642051-28.177759 2.854001-37.20025-23.406083-44.099381-26.562982-6.978948-36.385698-0.920976-42.3659 26.120914-0.467651 2.114151-0.943488 4.226255-1.473561 6.325056-10.818393 42.831504-58.991556 57.127092-91.696422 27.201525-5.186116-4.745071-10.210549-9.66922-15.45397-14.347776-7.385201-6.590092-15.47546-6.715959-24.085558-2.446725-30.788214 15.265682-35.232432 40.269146-10.834766 63.358003 14.116509 13.359262 22.892383 28.138874 19.892049 48.714492-4.063549 27.871791-20.485567 42.401716-46.90631 49.059346-26.683732 6.723122-31.375591 16.32378-23.581068 42.507116 7.749498 26.03291 17.146519 31.477922 43.104727 22.911826 22.172999-7.317663 41.832757-7.018857 60.168358 10.129708 19.352767 18.10024 20.706601 38.97364 14.157441 62.494333-2.550079 9.159614-7.512091 19.682271 0.874927 27.697829 12.759605 12.19474 29.109991 16.211217 46.402843 14.08581 15.388479-1.89107 16.182564-15.350616 19.070334-26.782993 0.928139-3.672646 1.747807-7.380084 2.860141-10.997472 11.995195-38.975686 58.007135-52.118008 88.727811-25.287943 5.699816 4.978385 10.790764 10.661827 16.550954 15.564487 7.208169 6.134721 15.243169 7.449669 24.13263 3.202948 31.462572-15.034415 35.890418-40.686654 10.966773-64.278979-0.785899-0.743944-1.609661-1.450025-2.382257-2.206248-31.705096-31.051203-19.589151-79.994915 22.910802-92.557022 5.184069-1.531889 10.334369-3.198855 15.564487-4.554736C916.659273 649.928373 921.519977 640.245849 920.236751 626.689089zM728.744439 747.134275c-42.499953 0.786922-78.599126-35.096333-78.689177-78.218456-0.090051-43.186591 34.540677-77.952396 78.408791-78.711689 42.272779-0.731664 78.418001 35.245735 78.765925 78.399581C807.574832 711.475124 772.752746 746.3187 728.744439 747.134275z"/>
</svg>